# xmcd
#
# Track frame offsets:
#	150
#	18442
#	36727
#	59905
#	81605
#	94805
#	108752
#	124812
#	139452
#	159575
#	173365
#	189470
#	209460
#	224622
#	237305
#	258842
#	278767
#
# Disc length: 4007 seconds
#
# Revision: 1
# Processed by: cddbd v1.4PL0 Copyright (c) Steve Scherf et al.
# Submitted via: audiograbber 1.80
#
DISCID=050fa511
DTITLE=Luiz Carlos Borges - Hay Chamamé
DYEAR=1900
DGENRE=
TTITLE0=Tristeza Chamamecera
TTITLE1=Tropa de Osso
TTITLE2=De Véio Pra Véio
TTITLE3=Chamamecero
TTITLE4=O Bugio
TTITLE5=Baile de Fronteira
TTITLE6=Redomona
TTITLE7=Pedindo Cancha
TTITLE8=Não Chore Não
TTITLE9=Apurade José
TTITLE10=Gaudério
TTITLE11=Merceditas
TTITLE12=Prosa de Galpão
TTITLE13=Galpão Crioulo
TTITLE14=Chamigo Raulito
TTITLE15=Com Saudade
TTITLE16=Italiano
EXTD=
EXTT0=
EXTT1=
EXTT2=
EXTT3=
EXTT4=
EXTT5=
EXTT6=
EXTT7=
EXTT8=
EXTT9=
EXTT10=
EXTT11=
EXTT12=
EXTT13=
EXTT14=
EXTT15=
EXTT16=
PLAYORDER=
